<svg width="56" height="56" viewBox="0 0 56 56" fill="none" xmlns="http://www.w3.org/2000/svg">
<g filter="url(#filter0_d_2_375)">
<g clip-path="url(#clip0_2_375)">
<rect x="4" width="48" height="48" rx="2" fill="#242424"/>
<path fill-rule="evenodd" clip-rule="evenodd" d="M42.55 15.704L42.3167 15.279C42.0157 14.765 41.5912 14.3379 41.0833 14.038L29.9 7.459C29.3937 7.15937 28.8188 7.00105 28.2333 7H27.75C27.1645 7.00105 26.5897 7.15937 26.0833 7.459L14.9 14.055C14.3949 14.3529 13.9754 14.7808 13.6833 15.296L13.45 15.721C13.1562 16.2375 13.001 16.8238 13 17.421V30.5959C13.001 31.1931 13.1562 31.7794 13.45 32.2959L13.6833 32.7209C13.983 33.23 14.4008 33.6562 14.9 33.9619L26.1 40.5409C26.6038 40.8467 27.1803 41.0055 27.7667 40.9999H28.2333C28.8188 40.9988 29.3937 40.8406 29.9 40.5409L41.0833 33.9449C41.5933 33.6537 42.0145 33.2241 42.3 32.7039L42.55 32.2789C42.8402 31.7609 42.9952 31.1756 43 30.5789V17.404C42.999 16.8068 42.8438 16.2205 42.55 15.704ZM27.75 10.4H28.2333L38 16.146L28 22.0279L18 16.146L27.75 10.4ZM29.6667 36.7499L39.4167 31.0039L39.6667 30.5789V19.0869L29.6667 24.9859V36.7499Z" fill="#FF903F"/>
<g filter="url(#filter1_d_2_375)">
<rect x="4" width="48" height="48" rx="2" fill="#242424"/>
<mask id="mask0_2_375" style="mask-type:luminance" maskUnits="userSpaceOnUse" x="33" y="8" width="12" height="12">
<path d="M33.0156 8.23633H44.521V19.4384H33.0156V8.23633Z" fill="white"/>
</mask>
<g mask="url(#mask0_2_375)">
<path d="M42.2613 11.589H35.4835V10.4712H42.2613V11.589ZM42.2613 13.8247H41.1323V12.7069H42.2613V13.8247ZM40.0023 13.8247H35.4835V12.7069H40.0023V13.8247ZM42.8267 8.23633H34.919C33.9834 8.23633 33.2246 8.98698 33.2246 9.91267V14.3832C33.2246 15.3089 33.9834 16.0596 34.919 16.0596H36.4256L35.8438 19.4294L41.2928 16.0596H42.8267C43.7596 16.0596 44.5211 15.3089 44.5211 14.3832V9.91267C44.5211 8.98698 43.7596 8.23633 42.8267 8.23633Z" fill="#FF903F"/>
</g>
<path d="M32.0943 29.4703C33.0272 29.4703 33.7887 28.7196 33.7887 27.7939V23.3243H32.6588V27.7939C32.6588 28.1025 32.4052 28.3533 32.0943 28.3533H30.9187C31.3045 27.6938 31.5298 26.9323 31.5298 26.1176V23.3017C29.8326 23.1772 28.2512 22.4834 27.011 21.3159C25.7689 22.4834 24.1866 23.1772 22.4922 23.3017V26.1176C22.4922 28.5825 24.5177 30.5881 27.011 30.5881C28.1518 30.5881 29.1933 30.1623 29.9895 29.4703H32.0943Z" fill="#FF903F"/>
<path d="M27.012 14.9417C23.5858 14.9417 20.7988 17.6989 20.7988 21.0885V23.0753C20.973 22.9742 21.1627 22.8957 21.3633 22.8434V22.2064H21.9288C23.5986 22.2064 25.1671 21.5622 26.35 20.3947L27.012 19.7397L27.6741 20.3947C28.8542 21.5622 30.4255 22.2064 32.0953 22.2064H33.2253V21.0885C33.2253 17.6989 30.4365 14.9417 27.012 14.9417Z" fill="#FF903F"/>
<path d="M21.3633 25.9632V24.0378C21.0259 24.2318 20.7988 24.5873 20.7988 25.0005C20.7988 25.4128 21.0259 25.7683 21.3633 25.9632Z" fill="#FD8F3F"/>
<path d="M33.407 33.0177L29.4591 32.3086L27.0105 34.7311L24.561 32.3086L20.6121 33.0177C19.5971 33.2009 18.7654 33.9146 18.4389 34.8836L18.4316 34.8989L19.6856 36.1395L22.5492 33.5744L26.3065 37.2934H36.3919L35.5802 34.8836C35.2556 33.9146 34.4211 33.2009 33.407 33.0177Z" fill="#FF903F"/>
<path d="M25.3164 31.4478V31.4739L27.0108 33.1512L28.7053 31.4739V31.4478C28.169 31.6165 27.6 31.7058 27.0108 31.7058C26.419 31.7058 25.8499 31.6165 25.3164 31.4478Z" fill="#FD8F3F"/>
<path d="M11.8008 27.6026L15.9885 31.7447L17.4486 30.3003L13.2608 26.1572L11.8008 27.6026Z" fill="#F48A3D"/>
<mask id="mask1_2_375" style="mask-type:luminance" maskUnits="userSpaceOnUse" x="9" y="9" width="23" height="16">
<path d="M9.55249 9.73755H31.8482V24.2887H9.55249V9.73755Z" fill="white"/>
</mask>
<g mask="url(#mask1_2_375)">
<path d="M14.8748 22.1252L14.2948 21.1697L12.7636 22.0774C14.365 15.6318 20.2235 11.0305 27.0122 11.0305C28.495 11.0305 29.9596 11.2488 31.3632 11.6783L31.696 10.6109C30.1849 10.1481 28.609 9.9126 27.0122 9.9126C19.6316 9.9126 13.2734 14.9633 11.62 22.0079L10.5503 20.2413L9.58179 20.8179L11.5671 24.0903L14.8748 22.1252Z" fill="#F68B3D"/>
</g>
<mask id="mask2_2_375" style="mask-type:luminance" maskUnits="userSpaceOnUse" x="38" y="18" width="7" height="18">
<path d="M38.3867 18.5144H44.4549V35.6063H38.3867V18.5144Z" fill="white"/>
</mask>
<g mask="url(#mask2_2_375)">
<path d="M38.9516 21.9184L39.921 22.494L40.9087 20.8637C41.4294 22.3695 41.6966 23.9439 41.6966 25.5589C41.6966 28.8836 40.532 32.1316 38.4199 34.7075L39.2963 35.4104C41.5735 32.636 42.8265 29.1389 42.8265 25.5589C42.8265 23.8501 42.5466 22.18 42.0058 20.5822L43.6646 21.5665L44.2446 20.6102L40.9379 18.646L38.9516 21.9184Z" fill="#F68B3D"/>
</g>
<path d="M20.875 36.5797L25.071 40.7318L26.697 39.2584L22.512 35.1172L20.875 36.5797Z" fill="#F68B3D"/>
<mask id="mask3_2_375" style="mask-type:luminance" maskUnits="userSpaceOnUse" x="9" y="28" width="16" height="15">
<path d="M9.55249 28.2153H24.3774V42.882H9.55249V28.2153Z" fill="white"/>
</mask>
<g mask="url(#mask3_2_375)">
<path d="M19.2696 37.3052L15.2186 33.2975C15.0071 33.09 15.0052 32.7598 15.1949 32.5424L11.0026 28.3921L10.74 28.6519C9.99217 29.39 9.58179 30.3725 9.58179 31.4182C9.58179 32.463 9.99217 33.4455 10.74 34.1835L18.374 41.7361C19.12 42.4741 20.1132 42.8819 21.1692 42.8819C22.2244 42.8819 23.2175 42.4741 23.9471 41.7532L24.2389 41.4889L20.0329 37.3269C19.8168 37.51 19.473 37.5082 19.2696 37.3052Z" fill="#F68B3D"/>
</g>
</g>
</g>
</g>
<defs>
<filter id="filter0_d_2_375" x="0" y="0" width="56" height="56" filterUnits="userSpaceOnUse" color-interpolation-filters="sRGB">
<feFlood flood-opacity="0" result="BackgroundImageFix"/>
<feColorMatrix in="SourceAlpha" type="matrix" values="0 0 0 0 0 0 0 0 0 0 0 0 0 0 0 0 0 0 127 0" result="hardAlpha"/>
<feOffset dy="4"/>
<feGaussianBlur stdDeviation="2"/>
<feComposite in2="hardAlpha" operator="out"/>
<feColorMatrix type="matrix" values="0 0 0 0 0 0 0 0 0 0 0 0 0 0 0 0 0 0 0.5 0"/>
<feBlend mode="normal" in2="BackgroundImageFix" result="effect1_dropShadow_2_375"/>
<feBlend mode="normal" in="SourceGraphic" in2="effect1_dropShadow_2_375" result="shape"/>
</filter>
<filter id="filter1_d_2_375" x="0" y="0" width="56" height="56" filterUnits="userSpaceOnUse" color-interpolation-filters="sRGB">
<feFlood flood-opacity="0" result="BackgroundImageFix"/>
<feColorMatrix in="SourceAlpha" type="matrix" values="0 0 0 0 0 0 0 0 0 0 0 0 0 0 0 0 0 0 127 0" result="hardAlpha"/>
<feOffset dy="4"/>
<feGaussianBlur stdDeviation="2"/>
<feComposite in2="hardAlpha" operator="out"/>
<feColorMatrix type="matrix" values="0 0 0 0 0 0 0 0 0 0 0 0 0 0 0 0 0 0 0.5 0"/>
<feBlend mode="normal" in2="BackgroundImageFix" result="effect1_dropShadow_2_375"/>
<feBlend mode="normal" in="SourceGraphic" in2="effect1_dropShadow_2_375" result="shape"/>
</filter>
<clipPath id="clip0_2_375">
<rect x="4" width="48" height="48" rx="2" fill="white"/>
</clipPath>
</defs>
</svg>
