<svg width="48" height="48" viewBox="0 0 48 48" fill="none" xmlns="http://www.w3.org/2000/svg">
<g filter="url(#filter0_d_2_355)">
<g clip-path="url(#clip0_2_355)">
<rect width="48" height="48" rx="2" fill="#242424"/>
<mask id="mask0_2_355" style="mask-type:luminance" maskUnits="userSpaceOnUse" x="4" y="6" width="38" height="37">
<path d="M4 6H41.5004V42.9587H4V6Z" fill="white"/>
</mask>
<g mask="url(#mask0_2_355)">
<path d="M30.6095 8C27.8201 8 25.2548 9.17343 23.5 11.154C21.7452 9.17343 19.1799 8 16.3896 8C11.2147 8 7 12.0989 7 17.1426C7 30.0493 22.0898 39.3899 22.7346 39.7867C22.9596 39.9235 23.2298 40 23.5 40C23.6196 40 23.725 39.9847 23.8446 39.9541C22.6904 38.2317 22.0003 36.145 22.0003 33.9043C22.0003 28.0228 26.7102 23.2383 32.4998 23.2383C34.6001 23.2383 36.5498 23.8628 38.185 24.9444C39.2949 22.5373 40 19.9313 40 17.1426C40 12.0989 35.7853 8 30.6095 8Z" fill="#FF903F"/>
</g>
<mask id="mask1_2_355" style="mask-type:luminance" maskUnits="userSpaceOnUse" x="24" y="26" width="21" height="23">
<path d="M24.3184 26.9143H44.7731V48.2222H24.3184V26.9143Z" fill="white"/>
</mask>
<g mask="url(#mask1_2_355)">
<path d="M42.5602 42.4391L38.7505 38.6292C39.5365 37.4431 39.9996 36.0253 39.9996 34.4993C39.9996 30.3637 36.6352 27 32.4998 27C28.3644 27 25 30.3637 25 34.4993C25 38.6349 28.3644 41.9995 32.4998 41.9995C34.0258 41.9995 35.4425 41.5363 36.6296 40.7502L40.4393 44.5601C41.0257 45.1466 41.9737 45.1466 42.5602 44.5601C43.1466 43.9736 43.1466 43.0256 42.5602 42.4391ZM32.4998 38.9992C30.0193 38.9992 28.0001 36.9808 28.0001 34.4993C28.0001 32.0187 30.0193 29.9993 32.4998 29.9993C34.9813 29.9993 36.9995 32.0187 36.9995 34.4993C36.9995 36.9808 34.9813 38.9992 32.4998 38.9992Z" fill="#FF903F"/>
</g>
</g>
</g>
<defs>
<filter id="filter0_d_2_355" x="-4" y="0" width="56" height="56" filterUnits="userSpaceOnUse" color-interpolation-filters="sRGB">
<feFlood flood-opacity="0" result="BackgroundImageFix"/>
<feColorMatrix in="SourceAlpha" type="matrix" values="0 0 0 0 0 0 0 0 0 0 0 0 0 0 0 0 0 0 127 0" result="hardAlpha"/>
<feOffset dy="4"/>
<feGaussianBlur stdDeviation="2"/>
<feComposite in2="hardAlpha" operator="out"/>
<feColorMatrix type="matrix" values="0 0 0 0 0 0 0 0 0 0 0 0 0 0 0 0 0 0 0.5 0"/>
<feBlend mode="normal" in2="BackgroundImageFix" result="effect1_dropShadow_2_355"/>
<feBlend mode="normal" in="SourceGraphic" in2="effect1_dropShadow_2_355" result="shape"/>
</filter>
<clipPath id="clip0_2_355">
<rect width="48" height="48" rx="2" fill="white"/>
</clipPath>
</defs>
</svg>
