<svg width="117" height="30" viewBox="0 0 117 30" fill="none" xmlns="http://www.w3.org/2000/svg">
<path d="M12.4998 20C13.3791 20 14 20.6353 14 21.4998C14 22.3647 13.3791 23 12.4998 23C11.6205 23 11 22.3647 11 21.4998C11 20.6353 11.6209 20 12.4998 20Z" fill="#FF903F"/>
<path d="M12.8386 4.5C10.2777 4.5 8.27766 5.83485 7.40499 7.84836C6.98326 8.8221 7.67298 9.9261 8.69682 9.9261C9.38998 9.9261 10.2124 9.39656 10.5491 8.76372C11.0043 7.90675 11.7684 7.36194 12.7128 7.36194C13.9269 7.36194 14.8472 8.25708 14.8472 9.41497C14.8472 10.4637 14.0312 11.0534 13.1942 11.6432C11.813 12.6259 11.1018 13.7402 11.1018 16.0556C11.1018 16.1503 11.1104 16.2442 11.1285 16.3372C11.1461 16.4301 11.1723 16.5204 11.207 16.608C11.2418 16.696 11.2844 16.7791 11.335 16.8577C11.3853 16.9368 11.4428 17.01 11.5072 17.0769C11.5712 17.1438 11.6412 17.2036 11.7168 17.2566C11.7924 17.3091 11.8719 17.3536 11.956 17.39C12.0398 17.4263 12.1265 17.4537 12.2154 17.4722C12.3048 17.4906 12.3945 17.5 12.4856 17.5H12.6105C12.7016 17.5 12.7913 17.4906 12.8807 17.4722C12.9696 17.4537 13.0563 17.4263 13.1401 17.39C13.2242 17.3536 13.3037 17.3091 13.3793 17.2566C13.4549 17.2036 13.5249 17.1438 13.5889 17.0769C13.6533 17.01 13.7108 16.9368 13.7611 16.8582C13.8118 16.7791 13.8543 16.696 13.8891 16.608C13.9238 16.5204 13.95 16.4301 13.9677 16.3372C13.9853 16.2442 13.9943 16.1503 13.9943 16.0556H13.9896C13.9896 14.4391 14.5964 13.7618 15.7259 13.0849C17.1908 12.1889 18.2791 11.075 18.2791 9.15267C18.2791 6.44434 15.9355 4.5 12.8386 4.5Z" fill="#FF903F"/>
<path d="M33.5591 11.352H29.3591V8.88C29.3591 8.528 29.1591 8.352 28.7591 8.352H27.9191C27.5191 8.352 27.3191 8.528 27.3191 8.88V17.712C27.3191 18.064 27.5191 18.24 27.9191 18.24H28.7591C29.1591 18.24 29.3591 18.064 29.3591 17.712V15.336H33.5591V18.024C33.5591 20.008 32.3831 21 30.0311 21H26.6471C24.2951 21 23.1191 20.008 23.1191 18.024V8.568C23.1191 6.584 24.2951 5.592 26.6471 5.592H30.0311C32.3831 5.592 33.5591 6.584 33.5591 8.568V11.352ZM42.2739 5.592H46.4019V21H42.2739V14.904H39.2499V21H35.1219V5.592H39.2499V11.904H42.2739V5.592ZM48.3172 5.592H52.5172V21H48.3172V5.592ZM65.1431 17.472V15.288C65.1431 14.936 64.9431 14.76 64.5431 14.76H62.2391C61.0551 14.76 60.2151 14.504 59.7191 13.992C59.2391 13.464 58.9991 12.712 58.9991 11.736V8.568C58.9991 6.584 60.1671 5.592 62.5031 5.592H65.7911C68.1271 5.592 69.2951 6.584 69.2951 8.568V10.416H65.0951V9.12C65.0951 8.768 64.8951 8.592 64.4951 8.592H63.7991C63.3991 8.592 63.1991 8.768 63.1991 9.12V11.4C63.1991 11.752 63.3991 11.928 63.7991 11.928H66.0551C67.2391 11.928 68.0791 12.176 68.5751 12.672C69.0871 13.168 69.3431 13.896 69.3431 14.856V18.024C69.3431 20.008 68.1751 21 65.8391 21H62.5751C60.2231 21 59.0471 20.008 59.0471 18.024V16.176H63.2471V17.472C63.2471 17.824 63.4471 18 63.8471 18H64.5431C64.9431 18 65.1431 17.824 65.1431 17.472ZM71.0281 5.592H75.2281V21H71.0281V5.592ZM84.9933 21L84.5133 18.696H80.8173L80.3133 21H76.1853L80.1453 5.592H85.2573L89.2173 21H84.9933ZM81.4653 15.72H83.8653L82.6893 10.176L81.4653 15.72ZM93.9206 21H90.1766V5.592H94.7606L97.2566 13.824L99.7526 5.592H104.337V21H100.617V11.208L98.6966 17.664H95.8166L93.9206 11.256V21ZM109.711 5.592H113.263C115.615 5.592 116.791 6.584 116.791 8.568V18.024C116.791 20.008 115.615 21 113.263 21H109.711C107.359 21 106.183 20.008 106.183 18.024V8.568C106.183 6.584 107.359 5.592 109.711 5.592ZM112.591 17.472V9.12C112.591 8.768 112.391 8.592 111.991 8.592H110.983C110.583 8.592 110.383 8.768 110.383 9.12V17.472C110.383 17.824 110.583 18 110.983 18H111.991C112.391 18 112.591 17.824 112.591 17.472Z" fill="white"/>
</svg>
