<svg width="122" height="22" viewBox="0 0 122 22" fill="none" xmlns="http://www.w3.org/2000/svg">
<path d="M8.9352 17.296V14.384C8.9352 13.9147 8.66854 13.68 8.1352 13.68H5.0632C3.48454 13.68 2.36454 13.3387 1.7032 12.656C1.0632 11.952 0.743203 10.9493 0.743203 9.648V5.424C0.743203 2.77867 2.30054 1.456 5.4152 1.456H9.7992C12.9139 1.456 14.4712 2.77867 14.4712 5.424V7.888H8.8712V6.16C8.8712 5.69067 8.60454 5.456 8.0712 5.456H7.1432C6.60987 5.456 6.3432 5.69067 6.3432 6.16V9.2C6.3432 9.66933 6.60987 9.904 7.1432 9.904H10.1512C11.7299 9.904 12.8499 10.2347 13.5112 10.896C14.1939 11.5573 14.5352 12.528 14.5352 13.808V18.032C14.5352 20.6773 12.9779 22 9.8632 22H5.5112C2.3752 22 0.807203 20.6773 0.807203 18.032V15.568H6.4072V17.296C6.4072 17.7653 6.67387 18 7.2072 18H8.1352C8.66854 18 8.9352 17.7653 8.9352 17.296ZM21.166 6.032H25.23C26.8513 6.032 28.014 6.37333 28.718 7.056C29.422 7.73867 29.774 8.72 29.774 10V18.032C29.774 19.312 29.422 20.2933 28.718 20.976C28.014 21.6587 26.8513 22 25.23 22H21.166C19.5446 22 18.382 21.6587 17.678 20.976C16.974 20.2933 16.622 19.312 16.622 18.032V10C16.622 8.72 16.974 7.73867 17.678 7.056C18.382 6.37333 19.5446 6.032 21.166 6.032ZM24.43 17.52V10.512C24.43 10.0427 24.1633 9.808 23.63 9.808H22.766C22.2326 9.808 21.966 10.0427 21.966 10.512V17.52C21.966 17.9893 22.2326 18.224 22.766 18.224H23.63C24.1633 18.224 24.43 17.9893 24.43 17.52ZM37.6282 22H32.1882V0.591999H37.6282V22ZM47.5162 0.591999H52.9562V22H47.6122V19.952C47.3135 21.3173 46.3429 22 44.7002 22H44.1242C41.2869 22 39.8682 20.6773 39.8682 18.032V10C39.8682 7.35467 41.2869 6.032 44.1242 6.032H44.7002C46.1722 6.032 47.1109 6.608 47.5162 7.76V0.591999ZM46.1082 18H46.6522C47.2282 18 47.5162 17.68 47.5162 17.04V10.992C47.5162 10.352 47.2282 10.032 46.6522 10.032H46.1082C45.5749 10.032 45.3082 10.2667 45.3082 10.736V17.296C45.3082 17.7653 45.5749 18 46.1082 18ZM59.8847 6.032H63.7887C66.9247 6.032 68.4927 7.35467 68.4927 10V15.44H60.3327V17.552C60.3327 18.0213 60.5994 18.256 61.1327 18.256H62.5407C63.074 18.256 63.3407 18 63.3407 17.488V16.592H68.4927V18.032C68.4927 20.6773 66.9247 22 63.7887 22H59.8847C56.7487 22 55.1807 20.6773 55.1807 18.032V10C55.1807 7.35467 56.7487 6.032 59.8847 6.032ZM60.3327 12.496H63.3407V10.48C63.3407 10.0107 63.074 9.776 62.5407 9.776H61.1327C60.5994 9.776 60.3327 10.0107 60.3327 10.48V12.496ZM79.3632 5.872H79.8432V10.608H78.0192C76.6752 10.608 76.0032 11.3333 76.0032 12.784V22H70.5632V6.032H75.9072V8.496C76.0779 7.68533 76.4619 7.04533 77.0592 6.576C77.6565 6.10667 78.4245 5.872 79.3632 5.872ZM106.207 5.872H106.687V10.608H104.863C103.519 10.608 102.847 11.3333 102.847 12.784V22H97.407V6.032H102.751V8.496C102.922 7.68533 103.306 7.04533 103.903 6.576C104.5 6.10667 105.268 5.872 106.207 5.872ZM112.51 6.032H116.574C118.195 6.032 119.358 6.37333 120.062 7.056C120.766 7.73867 121.118 8.72 121.118 10V18.032C121.118 19.312 120.766 20.2933 120.062 20.976C119.358 21.6587 118.195 22 116.574 22H112.51C110.888 22 109.726 21.6587 109.022 20.976C108.318 20.2933 107.966 19.312 107.966 18.032V10C107.966 8.72 108.318 7.73867 109.022 7.056C109.726 6.37333 110.888 6.032 112.51 6.032ZM115.774 17.52V10.512C115.774 10.0427 115.507 9.808 114.974 9.808H114.11C113.576 9.808 113.31 10.0427 113.31 10.512V17.52C113.31 17.9893 113.576 18.224 114.11 18.224H114.974C115.507 18.224 115.774 17.9893 115.774 17.52Z" fill="white"/>
<path d="M81.282 1.456H90.786C93.922 1.456 95.49 2.77867 95.49 5.424V11.312C95.49 13.9573 93.922 15.28 90.786 15.28H86.882V22H81.282V1.456ZM89.89 10.576V6.16C89.89 5.69067 89.6233 5.456 89.09 5.456H86.882V11.28H89.09C89.6233 11.28 89.89 11.0453 89.89 10.576Z" fill="#FF903F"/>
</svg>
